<?xml version="1.0" encoding="UTF-8" standalone="no"?>
<!-- Created with Inkscape (http://www.inkscape.org/) -->

<svg
   xmlns:dc="http://purl.org/dc/elements/1.1/"
   xmlns:cc="http://creativecommons.org/ns#"
   xmlns:rdf="http://www.w3.org/1999/02/22-rdf-syntax-ns#"
   xmlns:svg="http://www.w3.org/2000/svg"
   xmlns="http://www.w3.org/2000/svg"
   xmlns:sodipodi="http://sodipodi.sourceforge.net/DTD/sodipodi-0.dtd"
   xmlns:inkscape="http://www.inkscape.org/namespaces/inkscape"
   width="77.28125"
   height="62.09375"
   id="svg2984"
   version="1.1"
   inkscape:version="0.48.5 r10040"
   sodipodi:docname="ign100_2.svg">
  <defs
     id="defs2986" />
  <sodipodi:namedview
     id="base"
     pagecolor="#ffffff"
     bordercolor="#666666"
     borderopacity="1.0"
     inkscape:pageopacity="0.0"
     inkscape:pageshadow="2"
     inkscape:zoom="7.9195959"
     inkscape:cx="20.468918"
     inkscape:cy="36.216006"
     inkscape:document-units="px"
     inkscape:current-layer="layer1"
     showgrid="false"
     showguides="true"
     inkscape:guide-bbox="true"
     inkscape:object-paths="true"
     inkscape:snap-nodes="false"
     fit-margin-top="0"
     fit-margin-left="0"
     fit-margin-right="0"
     fit-margin-bottom="0"
     inkscape:window-width="1024"
     inkscape:window-height="702"
     inkscape:window-x="0"
     inkscape:window-y="27"
     inkscape:window-maximized="1"
     units="mm">
    <sodipodi:guide
       orientation="0,1"
       position="-30.9442,90.749427"
       id="guide3863" />
  </sodipodi:namedview>
  <metadata
     id="metadata2989">
    <rdf:RDF>
      <cc:Work
         rdf:about="">
        <dc:format>image/svg+xml</dc:format>
        <dc:type
           rdf:resource="http://purl.org/dc/dcmitype/StillImage" />
        <dc:title></dc:title>
      </cc:Work>
    </rdf:RDF>
  </metadata>
  <g
     inkscape:label="Capa 1"
     inkscape:groupmode="layer"
     id="layer1"
     transform="translate(-298.5,-653.87499)">
    <path
       transform="translate(38.495676,49.822814)"
       sodipodi:type="arc"
       style="fill:#ff0000;fill-opacity:0;stroke:#00ad00;stroke-width:1.5;stroke-miterlimit:4;stroke-opacity:1;stroke-dasharray:none"
       id="path3865-9"
       sodipodi:cx="265.16504"
       sodipodi:cy="626.91437"
       sodipodi:rx="3.0304577"
       sodipodi:ry="3.1409431"
       d="m 268.1955,626.91437 c 0,1.73469 -1.35679,3.14094 -3.03046,3.14094 -1.67368,0 -3.03046,-1.40625 -3.03046,-3.14094 0,-1.7347 1.35678,-3.14095 3.03046,-3.14095 1.67367,0 3.03046,1.40625 3.03046,3.14095 z" />
    <path
       transform="translate(44.299247,69.822814)"
       sodipodi:type="arc"
       style="fill:#ff0000;fill-opacity:0;stroke:#00ad00;stroke-width:1.5;stroke-miterlimit:4;stroke-opacity:1;stroke-dasharray:none"
       id="path3865-1"
       sodipodi:cx="265.16504"
       sodipodi:cy="626.91437"
       sodipodi:rx="3.0304577"
       sodipodi:ry="3.1409431"
       d="m 268.1955,626.91437 c 0,1.73469 -1.35679,3.14094 -3.03046,3.14094 -1.67368,0 -3.03046,-1.40625 -3.03046,-3.14094 0,-1.7347 1.35678,-3.14095 3.03046,-3.14095 1.67367,0 3.03046,1.40625 3.03046,3.14095 z" />
    <path
       transform="translate(48.942105,39.2871)"
       sodipodi:type="arc"
       style="fill:#ff0000;fill-opacity:0;stroke:#00ad00;stroke-width:1.5;stroke-miterlimit:4;stroke-opacity:1;stroke-dasharray:none"
       id="path3865-2"
       sodipodi:cx="265.16504"
       sodipodi:cy="626.91437"
       sodipodi:rx="3.0304577"
       sodipodi:ry="3.1409431"
       d="m 268.1955,626.91437 c 0,1.73469 -1.35679,3.14094 -3.03046,3.14094 -1.67368,0 -3.03046,-1.40625 -3.03046,-3.14094 0,-1.7347 1.35678,-3.14095 3.03046,-3.14095 1.67367,0 3.03046,1.40625 3.03046,3.14095 z" />
    <path
       transform="translate(63.495676,31.7871)"
       sodipodi:type="arc"
       style="fill:#ff0000;fill-opacity:0;stroke:#00ad00;stroke-width:1.5;stroke-miterlimit:4;stroke-opacity:1;stroke-dasharray:none"
       id="path3865-70"
       sodipodi:cx="265.16504"
       sodipodi:cy="626.91437"
       sodipodi:rx="3.0304577"
       sodipodi:ry="3.1409431"
       d="m 268.1955,626.91437 c 0,1.73469 -1.35679,3.14094 -3.03046,3.14094 -1.67368,0 -3.03046,-1.40625 -3.03046,-3.14094 0,-1.7347 1.35678,-3.14095 3.03046,-3.14095 1.67367,0 3.03046,1.40625 3.03046,3.14095 z" />
    <path
       transform="translate(77.150405,38.180582)"
       sodipodi:type="arc"
       style="fill:#ff0000;fill-opacity:0;stroke:#00ad00;stroke-width:1.5;stroke-miterlimit:4;stroke-opacity:1;stroke-dasharray:none"
       id="path3865-93"
       sodipodi:cx="265.16504"
       sodipodi:cy="626.91437"
       sodipodi:rx="3.0304577"
       sodipodi:ry="3.1409431"
       d="m 268.1955,626.91437 c 0,1.73469 -1.35679,3.14094 -3.03046,3.14094 -1.67368,0 -3.03046,-1.40625 -3.03046,-3.14094 0,-1.7347 1.35678,-3.14095 3.03046,-3.14095 1.67367,0 3.03046,1.40625 3.03046,3.14095 z" />
    <path
       transform="translate(89.903581,32.498474)"
       sodipodi:type="arc"
       style="fill:#ff0000;fill-opacity:0;stroke:#00ad00;stroke-width:1.5;stroke-miterlimit:4;stroke-opacity:1;stroke-dasharray:none"
       id="path3865-60"
       sodipodi:cx="265.16504"
       sodipodi:cy="626.91437"
       sodipodi:rx="3.0304577"
       sodipodi:ry="3.1409431"
       d="m 268.1955,626.91437 c 0,1.73469 -1.35679,3.14094 -3.03046,3.14094 -1.67368,0 -3.03046,-1.40625 -3.03046,-3.14094 0,-1.7347 1.35678,-3.14095 3.03046,-3.14095 1.67367,0 3.03046,1.40625 3.03046,3.14095 z" />
    <path
       transform="translate(73.74114,59.898862)"
       sodipodi:type="arc"
       style="fill:#ff0000;fill-opacity:0;stroke:#00ad00;stroke-width:1.5;stroke-miterlimit:4;stroke-opacity:1;stroke-dasharray:none"
       id="path3865-18"
       sodipodi:cx="265.16504"
       sodipodi:cy="626.91437"
       sodipodi:rx="3.0304577"
       sodipodi:ry="3.1409431"
       d="m 268.1955,626.91437 c 0,1.73469 -1.35679,3.14094 -3.03046,3.14094 -1.67368,0 -3.03046,-1.40625 -3.03046,-3.14094 0,-1.7347 1.35678,-3.14095 3.03046,-3.14095 1.67367,0 3.03046,1.40625 3.03046,3.14095 z" />
    <path
       transform="translate(97.334962,69.019243)"
       sodipodi:type="arc"
       style="fill:#ff0000;fill-opacity:0;stroke:#00ad00;stroke-width:1.5;stroke-miterlimit:4;stroke-opacity:1;stroke-dasharray:none"
       id="path3865-60-5"
       sodipodi:cx="265.16504"
       sodipodi:cy="626.91437"
       sodipodi:rx="3.0304577"
       sodipodi:ry="3.1409431"
       d="m 268.1955,626.91437 c 0,1.73469 -1.35679,3.14094 -3.03046,3.14094 -1.67368,0 -3.03046,-1.40625 -3.03046,-3.14094 0,-1.7347 1.35678,-3.14095 3.03046,-3.14095 1.67367,0 3.03046,1.40625 3.03046,3.14095 z" />
  </g>
</svg>
