<?xml version="1.0" encoding="UTF-8" standalone="no"?>
<!-- Created with Inkscape (http://www.inkscape.org/) -->

<svg
   xmlns:dc="http://purl.org/dc/elements/1.1/"
   xmlns:cc="http://creativecommons.org/ns#"
   xmlns:rdf="http://www.w3.org/1999/02/22-rdf-syntax-ns#"
   xmlns:svg="http://www.w3.org/2000/svg"
   xmlns="http://www.w3.org/2000/svg"
   xmlns:sodipodi="http://sodipodi.sourceforge.net/DTD/sodipodi-0.dtd"
   xmlns:inkscape="http://www.inkscape.org/namespaces/inkscape"
   width="15.05923"
   height="13.515739"
   id="svg4064"
   version="1.1"
   inkscape:version="0.48.5 r10040"
   sodipodi:docname="Documento nuevo 13">
  <defs
     id="defs4066" />
  <sodipodi:namedview
     id="base"
     pagecolor="#ffffff"
     bordercolor="#666666"
     borderopacity="1.0"
     inkscape:pageopacity="0.0"
     inkscape:pageshadow="2"
     inkscape:zoom="1.979899"
     inkscape:cx="-65.287171"
     inkscape:cy="54.464567"
     inkscape:document-units="px"
     inkscape:current-layer="layer1"
     showgrid="false"
     fit-margin-top="0"
     fit-margin-left="0"
     fit-margin-right="0"
     fit-margin-bottom="0"
     inkscape:window-width="1366"
     inkscape:window-height="722"
     inkscape:window-x="0"
     inkscape:window-y="25"
     inkscape:window-maximized="1" />
  <metadata
     id="metadata4069">
    <rdf:RDF>
      <cc:Work
         rdf:about="">
        <dc:format>image/svg+xml</dc:format>
        <dc:type
           rdf:resource="http://purl.org/dc/dcmitype/StillImage" />
        <dc:title></dc:title>
      </cc:Work>
    </rdf:RDF>
  </metadata>
  <g
     inkscape:label="Capa 1"
     inkscape:groupmode="layer"
     id="layer1"
     transform="translate(-462.73842,-479.67471)">
    <g
       id="g4095"
       transform="matrix(0.09319191,0,0,0.09319191,419.69832,447.2148)">
      <path
         inkscape:connector-curvature="0"
         id="path3899"
         d="m 463.83036,360.13897 5.625,-4.64286 2.94643,-5.80357 5.08928,2.94643 8.39286,-2.76786 -0.625,7.32143 3.83929,3.21429 -7.58929,6.33928 -6.42857,1.42858 -1.69643,-4.64286 z"
         style="fill:none;stroke:#008000;stroke-width:2;stroke-linecap:butt;stroke-linejoin:miter;stroke-miterlimit:4;stroke-opacity:1;stroke-dasharray:none" />
      <path
         style="fill:none;stroke:#008000;stroke-width:2;stroke-linecap:butt;stroke-linejoin:miter;stroke-miterlimit:4;stroke-opacity:1;stroke-dasharray:none"
         d="m 530.61607,360.13897 5.625,-4.64286 2.94643,-5.80357 5.08928,2.94643 8.39286,-2.76786 -0.625,7.32143 3.83929,3.21429 -7.58929,6.33928 -6.42857,1.42858 -1.69643,-4.64286 z"
         id="path3901"
         inkscape:connector-curvature="0" />
      <path
         inkscape:connector-curvature="0"
         id="path3903"
         d="m 596.61607,360.13897 5.625,-4.64286 2.94643,-5.80357 5.08928,2.94643 8.39286,-2.76786 -0.625,7.32143 3.83929,3.21429 -7.58929,6.33928 -6.42857,1.42858 -1.69643,-4.64286 z"
         style="fill:none;stroke:#008000;stroke-width:2;stroke-linecap:butt;stroke-linejoin:miter;stroke-miterlimit:4;stroke-opacity:1;stroke-dasharray:none" />
      <path
         style="fill:none;stroke:#008000;stroke-width:2;stroke-linecap:butt;stroke-linejoin:miter;stroke-miterlimit:4;stroke-opacity:1;stroke-dasharray:none"
         d="m 596.61607,422.13897 5.625,-4.64286 2.94643,-5.80357 5.08928,2.94643 8.39286,-2.76786 -0.625,7.32143 3.83929,3.21429 -7.58929,6.33928 -6.42857,1.42858 -1.69643,-4.64286 z"
         id="path3905"
         inkscape:connector-curvature="0" />
      <path
         inkscape:connector-curvature="0"
         id="path3907"
         d="m 530.61607,422.13897 5.625,-4.64286 2.94643,-5.80357 5.08928,2.94643 8.39286,-2.76786 -0.625,7.32143 3.83929,3.21429 -7.58929,6.33928 -6.42857,1.42858 -1.69643,-4.64286 z"
         style="fill:none;stroke:#008000;stroke-width:2;stroke-linecap:butt;stroke-linejoin:miter;stroke-miterlimit:4;stroke-opacity:1;stroke-dasharray:none" />
      <path
         style="fill:none;stroke:#008000;stroke-width:2;stroke-linecap:butt;stroke-linejoin:miter;stroke-miterlimit:4;stroke-opacity:1;stroke-dasharray:none"
         d="m 464.61607,422.13897 5.625,-4.64286 2.94643,-5.80357 5.08928,2.94643 8.39286,-2.76786 -0.625,7.32143 3.83929,3.21429 -7.58929,6.33928 -6.42857,1.42858 -1.69643,-4.64286 z"
         id="path3909"
         inkscape:connector-curvature="0" />
      <path
         inkscape:connector-curvature="0"
         id="path3911"
         d="m 464.61607,484.13897 5.625,-4.64286 2.94643,-5.80357 5.08928,2.94643 8.39286,-2.76786 -0.625,7.32143 3.83929,3.21429 -7.58929,6.33928 -6.42857,1.42858 -1.69643,-4.64286 z"
         style="fill:none;stroke:#008000;stroke-width:2;stroke-linecap:butt;stroke-linejoin:miter;stroke-miterlimit:4;stroke-opacity:1;stroke-dasharray:none" />
      <path
         style="fill:none;stroke:#008000;stroke-width:2;stroke-linecap:butt;stroke-linejoin:miter;stroke-miterlimit:4;stroke-opacity:1;stroke-dasharray:none"
         d="m 530.61607,484.13897 5.625,-4.64286 2.94643,-5.80357 5.08928,2.94643 8.39286,-2.76786 -0.625,7.32143 3.83929,3.21429 -7.58929,6.33928 -6.42857,1.42858 -1.69643,-4.64286 z"
         id="path3913"
         inkscape:connector-curvature="0" />
      <path
         inkscape:connector-curvature="0"
         id="path3915"
         d="m 596.61607,484.13897 5.625,-4.64286 2.94643,-5.80357 5.08928,2.94643 8.39286,-2.76786 -0.625,7.32143 3.83929,3.21429 -7.58929,6.33928 -6.42857,1.42858 -1.69643,-4.64286 z"
         style="fill:none;stroke:#008000;stroke-width:2;stroke-linecap:butt;stroke-linejoin:miter;stroke-miterlimit:4;stroke-opacity:1;stroke-dasharray:none" />
    </g>
  </g>
</svg>
